<?xml version="1.0" encoding="UTF-8" standalone="no"?>
<!-- Generator: Adobe Illustrator 22.1.0, SVG Export Plug-In . SVG Version: 6.00 Build 0)  -->

<svg
   xmlns:dc="http://purl.org/dc/elements/1.1/"
   xmlns:cc="http://creativecommons.org/ns#"
   xmlns:rdf="http://www.w3.org/1999/02/22-rdf-syntax-ns#"
   xmlns:svg="http://www.w3.org/2000/svg"
   xmlns="http://www.w3.org/2000/svg"
   xmlns:sodipodi="http://sodipodi.sourceforge.net/DTD/sodipodi-0.dtd"
   xmlns:inkscape="http://www.inkscape.org/namespaces/inkscape"
   version="1.1"
   id="Layer_1"
   x="0px"
   y="0px"
   viewBox="0 0 2261.4675 273.20001"
   xml:space="preserve"
   inkscape:version="0.91 r13725"
   sodipodi:docname="logo-wide.svg"
   width="2261.4675"
   height="273.20001"
   inkscape:export-filename="E:\Dropbox\MovingPandasLogo\logo-wide.png"
   inkscape:export-xdpi="184.06"
   inkscape:export-ydpi="184.06"><metadata
     id="metadata39"><rdf:RDF><cc:Work
         rdf:about=""><dc:format>image/svg+xml</dc:format><dc:type
           rdf:resource="http://purl.org/dc/dcmitype/StillImage" /><dc:title /></cc:Work></rdf:RDF></metadata><defs
     id="defs37" /><sodipodi:namedview
     pagecolor="#ffffff"
     bordercolor="#666666"
     borderopacity="1"
     objecttolerance="10"
     gridtolerance="10"
     guidetolerance="10"
     inkscape:pageopacity="0"
     inkscape:pageshadow="2"
     inkscape:window-width="1670"
     inkscape:window-height="1079"
     id="namedview35"
     showgrid="false"
     fit-margin-top="0"
     fit-margin-left="0"
     fit-margin-right="0"
     fit-margin-bottom="0"
     inkscape:zoom="0.40223513"
     inkscape:cx="662.08729"
     inkscape:cy="435.36432"
     inkscape:window-x="631"
     inkscape:window-y="441"
     inkscape:window-maximized="0"
     inkscape:current-layer="Layer_1" /><style
     type="text/css"
     id="style3">
	.st0{fill:#25224F;}
	.st1{fill:#E31883;}
</style><g
     id="g7"
     transform="translate(-77.1,2.4800004e-6)"><g
       id="g9"><g
         id="g11"><path
           style="fill:#25224f"
           inkscape:connector-curvature="0"
           id="path13"
           d="m 217.2,0 -40.9,0 c -7.6,0 -13.7,6.1 -13.7,13.7 l 0,245.7 c 0,7.6 6.1,13.7 13.7,13.7 l 40.9,0 c 7.6,0 13.7,-6.1 13.7,-13.7 l 0,-245.7 C 230.9,6.1 224.7,0 217.2,0 Z m 85.4,0 -40.9,0 C 254.1,0 248,6.1 248,13.7 l 0,245.7 c 0,7.6 6.1,13.7 13.7,13.7 l 40.9,0 c 7.6,0 13.7,-6.1 13.7,-13.7 l 0,-245.7 C 316.3,6.1 310.2,0 302.6,0 Z M 388,0 347.1,0 c -7.6,0 -13.7,6.1 -13.7,13.7 l 0,245.7 c 0,7.6 6.1,13.7 13.7,13.7 l 40.9,0 c 7.6,0 13.7,-6.1 13.7,-13.7 l 0,-245.7 C 401.7,6.1 395.6,0 388,0 Z"
           class="st0" /></g></g><g
       id="g15"><g
         id="g17"><path
           style="fill:#e31883"
           inkscape:connector-curvature="0"
           id="path19"
           d="m 77.1,256.1 c 0,9.4 7.6,17.1 17.1,17.1 l 34.2,0 c 9.4,0 17.1,-7.6 17.1,-17.1 l 0,-153.7 -68.4,97.6 0,56.1 z M 470,0 435.8,0 c -9.4,0 -17.1,7.6 -17.1,17.1 l 0,153.6 68.3,-97.5 0,-56.1 C 487.1,7.6 479.5,0 470,0 Z"
           class="st1" /></g></g></g><g
     id="g21"
     transform="matrix(3.1010207,0,0,3.1010216,511.56167,-894.95483)"><g
       id="g23"><g
         id="g25"><path
           style="fill:#e31883"
           inkscape:connector-curvature="0"
           id="path27"
           d="m 55,317.6 c -1.8,-1.2 -4.2,-1.8 -7.3,-1.8 -2.6,0 -5,0.6 -7.1,1.7 -2.1,1.1 -3.9,2.7 -5.3,4.8 -0.5,-1.4 -1.3,-2.6 -2.2,-3.6 -1,-1 -2.2,-1.7 -3.7,-2.2 -1.5,-0.5 -3.3,-0.7 -5.3,-0.7 -1.8,0 -3.4,0.3 -4.8,0.8 -1.5,0.5 -2.7,1.3 -3.8,2.3 -1.1,1 -2,2.2 -2.8,3.7 l 0,-5.8 -12.7,0 0,39.3 12.6,0 0,-23.9 c 0,-1.6 0.2,-2.9 0.7,-4 0.5,-1.1 1.2,-1.9 2.1,-2.4 0.9,-0.5 1.9,-0.8 3.1,-0.8 1.1,0 2.1,0.3 2.8,0.8 0.7,0.5 1.2,1.3 1.6,2.4 0.3,1.1 0.5,2.4 0.5,4 l 0,23.9 13,0 0,-23.9 c 0,-1.5 0.2,-2.8 0.7,-3.9 0.5,-1.1 1.2,-1.9 2.1,-2.4 0.9,-0.5 1.9,-0.8 3,-0.8 1.2,0 2.2,0.3 2.9,0.8 0.7,0.5 1.2,1.3 1.5,2.4 0.3,1.1 0.5,2.4 0.5,4 l 0,23.9 13.1,0 0,-25.3 c 0,-3.2 -0.4,-5.9 -1.2,-8.1 -0.9,-2.3 -2.2,-4 -4,-5.2 z m 46.4,0.9 c -3.4,-1.7 -7.2,-2.6 -11.5,-2.6 -4.3,0 -8.1,0.9 -11.5,2.6 -3.4,1.7 -6.1,4.1 -8.1,7.2 -2,3.1 -3,6.7 -3,10.9 0,4.1 1,7.7 3,10.8 2,3.1 4.6,5.5 8,7.2 3.4,1.7 7.2,2.6 11.5,2.6 4.3,0 8.2,-0.9 11.5,-2.6 3.4,-1.7 6,-4.1 8,-7.2 2,-3.1 3,-6.7 3,-10.8 0,-4.2 -1,-7.8 -3,-10.9 -1.9,-3.1 -4.5,-5.5 -7.9,-7.2 z m -3.7,23.2 c -0.8,1.5 -1.9,2.6 -3.2,3.4 -1.4,0.8 -2.9,1.2 -4.6,1.2 -1.7,0 -3.2,-0.4 -4.6,-1.2 -1.4,-0.8 -2.5,-2 -3.3,-3.5 -0.8,-1.5 -1.2,-3.2 -1.2,-5.2 0,-2.1 0.4,-3.8 1.2,-5.3 0.8,-1.5 1.9,-2.6 3.3,-3.4 1.4,-0.8 2.9,-1.2 4.6,-1.2 1.7,0 3.2,0.4 4.6,1.2 1.4,0.8 2.5,1.9 3.2,3.4 0.8,1.5 1.2,3.2 1.2,5.3 0,2.1 -0.4,3.8 -1.2,5.3 z m 37.7,-3.1 -9,-21.8 -13.9,0 22.8,43.9 22.8,-43.9 -13.9,0 -8.8,21.8 z m 27.7,17.5 12.6,0 0,-39.3 -12.6,0 0,39.3 z m 11.7,-59 c -1.5,-1.3 -3.2,-2 -5.3,-2 -2.2,0 -4,0.7 -5.4,2 -1.4,1.3 -2.1,3 -2.1,5 0,2.1 0.7,3.7 2.1,5 1.4,1.3 3.2,1.9 5.4,1.9 2.1,0 3.9,-0.6 5.3,-1.9 1.5,-1.3 2.2,-2.9 2.2,-5 0,-2 -0.7,-3.7 -2.2,-5 z m 43.9,20.6 c -2.1,-1.2 -4.7,-1.8 -8,-1.8 -2.9,0 -5.3,0.6 -7.3,1.8 -2,1.2 -3.6,2.9 -4.7,5 l 0,-5.9 -13.1,0 0,39.3 13.1,0 0,-23.9 c 0,-1.5 0.3,-2.8 0.9,-3.9 0.6,-1.1 1.4,-1.9 2.4,-2.5 1,-0.5 2.2,-0.8 3.6,-0.8 1.4,0 2.6,0.3 3.4,0.8 0.8,0.5 1.4,1.4 1.8,2.4 0.4,1.1 0.6,2.4 0.6,3.9 l 0,23.9 13.5,0 0,-25.3 c 0,-3.1 -0.5,-5.8 -1.5,-8 -1.1,-2.1 -2.6,-3.8 -4.7,-5 z m 45.7,-0.9 0,6 c -0.4,-0.6 -0.8,-1.1 -1.3,-1.6 -1.5,-1.7 -3.3,-3 -5.4,-3.9 -2.1,-0.9 -4.3,-1.3 -6.8,-1.3 -3.2,0 -6.3,0.7 -9.1,2.2 -2.8,1.5 -5.1,3.7 -6.9,6.7 -1.8,3 -2.7,6.7 -2.7,11.1 0,4.4 0.9,8.1 2.7,11.1 1.8,3 4.1,5.2 6.9,6.7 2.8,1.5 5.9,2.2 9.1,2.2 2.5,0 4.7,-0.4 6.8,-1.3 2.1,-0.9 3.9,-2.2 5.4,-3.9 0.5,-0.5 0.9,-1.1 1.3,-1.6 l 0,6.2 c 0,2.3 -0.4,4.3 -1.3,6 -0.9,1.7 -2.1,2.9 -3.5,3.7 -1.5,0.8 -3.1,1.2 -5,1.2 -1.7,0 -3.1,-0.3 -4.4,-0.8 -1.3,-0.5 -2.3,-1.3 -3,-2.4 -0.7,-1.1 -1.2,-2.4 -1.5,-4 l -12.6,0 c 0.3,3.5 1.3,6.5 2.9,9.1 1.6,2.6 4,4.7 7.1,6.2 3.1,1.5 7.2,2.3 12.1,2.3 3.9,0 7.5,-0.7 10.8,-2.1 3.3,-1.4 5.9,-3.7 7.8,-6.8 1.9,-3.1 2.9,-7.2 2.9,-12.3 l 0,-38.5 -12.3,0 0,-0.2 z m -0.9,23.3 c -0.5,1.2 -1.3,2.2 -2.1,3 -0.9,0.8 -1.9,1.4 -2.9,1.8 -1.1,0.4 -2.2,0.6 -3.3,0.6 -1.7,0 -3.3,-0.4 -4.7,-1.1 -1.5,-0.7 -2.6,-1.8 -3.4,-3.2 -0.8,-1.4 -1.2,-3.2 -1.2,-5.2 0,-2.1 0.4,-3.8 1.3,-5.2 0.9,-1.4 2,-2.5 3.4,-3.2 1.4,-0.7 3,-1.1 4.7,-1.1 1.1,0 2.2,0.2 3.2,0.6 1.1,0.4 2.1,1 3,1.8 0.9,0.8 1.6,1.8 2.1,3 0.5,1.2 0.8,2.6 0.8,4.2 0,1.5 -0.3,2.8 -0.9,4 z"
           class="st1" /></g></g><g
       id="g29"><g
         id="g31"><path
           style="fill:#25224f"
           inkscape:connector-curvature="0"
           id="path33"
           d="m 322.4,317.1 c -2.9,-1.6 -5.9,-2.3 -9.1,-2.3 -2.6,0 -4.9,0.5 -6.9,1.5 -2.1,1 -3.8,2.4 -5.2,4.3 -0.5,0.6 -0.9,1.3 -1.3,2 l 0,-6.4 -12.9,0 0,58.1 12.9,0 0,-25.2 c 0.4,0.7 0.8,1.3 1.3,2 1.4,1.9 3.2,3.3 5.2,4.2 2,0.9 4.4,1.5 6.9,1.5 3.2,0 6.2,-0.8 9.1,-2.3 2.8,-1.6 5.2,-3.9 7,-7 1.8,-3.1 2.7,-6.9 2.7,-11.5 0,-4.7 -0.9,-8.6 -2.7,-11.7 -1.9,-3.3 -4.2,-5.6 -7,-7.2 z m -5.3,23.9 c -0.9,1.4 -2,2.5 -3.4,3.2 -1.4,0.7 -3,1.1 -4.7,1.1 -1,0 -2.1,-0.2 -3.2,-0.6 -1.1,-0.4 -2.1,-1 -3,-1.8 -0.9,-0.8 -1.6,-1.8 -2.1,-3 -0.5,-1.2 -0.8,-2.6 -0.8,-4.1 0,-1.7 0.3,-3.1 0.8,-4.3 0.5,-1.2 1.3,-2.2 2.1,-3 0.9,-0.8 1.9,-1.4 3,-1.8 1.1,-0.4 2.2,-0.6 3.2,-0.6 1.7,0 3.3,0.4 4.7,1.1 1.4,0.7 2.5,1.8 3.4,3.2 0.9,1.4 1.3,3.2 1.3,5.2 -0.1,2.2 -0.5,4 -1.3,5.4 z m 50,-24.5 c -2.7,-1 -5.8,-1.5 -9.4,-1.5 -3.7,0 -7.1,0.5 -10.2,1.4 -3.1,0.9 -5.8,2 -8.1,3 l 4.4,8.7 c 0.5,-0.3 1.4,-0.8 2.7,-1.3 1.3,-0.5 2.8,-1 4.5,-1.4 1.7,-0.4 3.4,-0.6 5.2,-0.6 1.2,0 2.3,0.1 3.2,0.3 0.9,0.2 1.7,0.6 2.4,1.1 0.7,0.5 1.1,1.1 1.4,1.9 0.3,0.8 0.4,1.6 0.4,2.5 l 0,3.4 c -0.1,0 -0.1,-0.1 -0.2,-0.1 -1.4,-0.7 -3.1,-1.2 -5,-1.7 -1.9,-0.4 -4,-0.6 -6.3,-0.6 -3.4,0 -6.3,0.5 -8.5,1.4 -2.3,0.9 -4,2.3 -5.1,4.2 -1.2,1.9 -1.8,4 -1.8,6.5 0,2.7 0.6,5 1.9,6.8 1.3,1.9 3,3.3 5.1,4.2 2.1,0.9 4.4,1.4 6.9,1.4 2.5,0 4.9,-0.4 7.1,-1.3 2.2,-0.9 4,-2.2 5.3,-3.9 0.2,-0.3 0.4,-0.6 0.6,-1 l 0,5.4 12.4,0 0,-27.8 c 0,-2.7 -0.8,-5 -2.4,-6.8 -1.7,-1.7 -3.8,-3.2 -6.5,-4.2 z m -4.8,27.7 c -0.8,1.3 -1.8,2.2 -3.1,2.8 -1.3,0.6 -2.6,0.9 -4.1,0.9 -1,0 -2,-0.2 -2.8,-0.6 -0.9,-0.4 -1.5,-0.9 -2,-1.6 -0.5,-0.7 -0.7,-1.5 -0.7,-2.6 0,-1 0.2,-1.9 0.6,-2.5 0.4,-0.6 1.1,-1.1 2.1,-1.5 0.9,-0.3 2.2,-0.5 3.6,-0.5 2,0 3.9,0.3 5.7,0.8 0.7,0.2 1.3,0.4 1.9,0.7 -0.1,1.7 -0.5,3 -1.2,4.1 z m 56,-27.2 c -2.1,-1.2 -4.7,-1.8 -8,-1.8 -2.9,0 -5.3,0.6 -7.3,1.8 -2,1.2 -3.6,2.9 -4.7,5 l 0,-5.9 -13.1,0 0,39.3 13.1,0 0,-23.9 c 0,-1.5 0.3,-2.8 0.9,-3.9 0.6,-1.1 1.4,-1.9 2.4,-2.5 1,-0.5 2.2,-0.8 3.6,-0.8 1.4,0 2.6,0.3 3.4,0.8 0.8,0.5 1.4,1.4 1.8,2.4 0.4,1.1 0.6,2.4 0.6,3.9 l 0,23.9 13.5,0 0,-25.3 c 0,-3.1 -0.5,-5.8 -1.5,-8 -1.1,-2.1 -2.6,-3.8 -4.7,-5 z m 45.7,5.3 c -0.4,-0.6 -0.8,-1.1 -1.2,-1.6 -1.5,-1.8 -3.3,-3.1 -5.4,-4.1 -2.1,-0.9 -4.4,-1.4 -6.9,-1.4 -3.2,0 -6.3,0.8 -9.1,2.3 -2.8,1.6 -5.1,3.9 -6.9,6.9 -1.8,3 -2.7,6.8 -2.7,11.2 0,4.4 0.9,8.1 2.7,11.2 1.8,3.1 4.1,5.4 6.9,7 2.8,1.6 5.9,2.3 9.1,2.3 2.5,0 4.8,-0.5 6.8,-1.4 2,-0.9 3.9,-2.3 5.4,-4.1 0.4,-0.5 0.9,-1 1.2,-1.6 l 0,6.2 12.9,0 0,-66.6 -12.8,0 0,33.7 z m -0.8,17.7 c -0.5,1.2 -1.3,2.3 -2.1,3.2 -0.9,0.9 -1.9,1.6 -3,2 -1.1,0.5 -2.1,0.7 -3.2,0.7 -1.8,0 -3.4,-0.4 -4.8,-1.2 -1.4,-0.8 -2.6,-2 -3.4,-3.5 -0.9,-1.5 -1.3,-3.3 -1.3,-5.3 0,-2.1 0.4,-3.8 1.3,-5.3 0.9,-1.5 2,-2.7 3.4,-3.5 1.4,-0.8 3,-1.2 4.7,-1.2 1.1,0 2.2,0.2 3.2,0.7 1.1,0.5 2.1,1.1 3,2 0.9,0.9 1.6,1.9 2.1,3.2 0.5,1.3 0.8,2.7 0.8,4.3 0.1,1.3 -0.2,2.7 -0.7,3.9 z m 51.2,-23.5 c -2.7,-1 -5.8,-1.5 -9.4,-1.5 -3.7,0 -7.1,0.5 -10.2,1.4 -3.1,0.9 -5.8,2 -8.1,3 l 4.4,8.7 c 0.5,-0.3 1.4,-0.8 2.7,-1.3 1.3,-0.5 2.8,-1 4.5,-1.4 1.7,-0.4 3.4,-0.6 5.2,-0.6 1.2,0 2.3,0.1 3.2,0.3 0.9,0.2 1.7,0.6 2.4,1.1 0.7,0.5 1.1,1.1 1.4,1.9 0.3,0.8 0.4,1.6 0.4,2.5 l 0,3.4 c -0.1,0 -0.1,-0.1 -0.2,-0.1 -1.4,-0.7 -3.1,-1.2 -5,-1.7 -1.9,-0.4 -4,-0.6 -6.3,-0.6 -3.4,0 -6.3,0.5 -8.5,1.4 -2.3,0.9 -4,2.3 -5.1,4.2 -1.2,1.9 -1.8,4 -1.8,6.5 0,2.7 0.6,5 1.9,6.8 1.3,1.9 3,3.3 5.1,4.2 2.1,0.9 4.4,1.4 6.9,1.4 2.5,0 4.9,-0.4 7.1,-1.3 2.2,-0.9 4,-2.2 5.3,-3.9 0.2,-0.3 0.4,-0.6 0.6,-1 l 0,5.4 12.4,0 0,-27.8 c 0,-2.7 -0.8,-5 -2.4,-6.8 -1.6,-1.7 -3.8,-3.2 -6.5,-4.2 z m -4.8,27.7 c -0.8,1.3 -1.8,2.2 -3.1,2.8 -1.3,0.6 -2.6,0.9 -4.1,0.9 -1,0 -2,-0.2 -2.8,-0.6 -0.9,-0.4 -1.5,-0.9 -2,-1.6 -0.5,-0.7 -0.7,-1.5 -0.7,-2.6 0,-1 0.2,-1.9 0.6,-2.5 0.4,-0.6 1.1,-1.1 2.1,-1.5 0.9,-0.3 2.2,-0.5 3.6,-0.5 2,0 3.9,0.3 5.7,0.8 0.7,0.2 1.3,0.4 1.9,0.7 -0.1,1.7 -0.5,3 -1.2,4.1 z m 53.1,-5.8 c -1.1,-1.5 -2.4,-2.7 -4.1,-3.7 -1.7,-1 -3.6,-1.8 -5.7,-2.6 -1.9,-0.7 -3.6,-1.4 -4.9,-1.8 -1.3,-0.5 -2.4,-1 -3.1,-1.6 -0.7,-0.6 -1.1,-1.3 -1.1,-2.1 0,-0.7 0.3,-1.3 0.9,-1.8 0.6,-0.5 1.5,-0.7 2.6,-0.7 1.8,0 3.7,0.5 5.9,1.5 2.2,1 4,2.3 5.6,3.8 l 4.6,-8.5 c -1.5,-1.1 -3.1,-2.1 -4.8,-3 -1.7,-0.9 -3.6,-1.5 -5.6,-2.1 -2,-0.6 -4.1,-0.8 -6.5,-0.8 -2.8,0 -5.3,0.4 -7.5,1.3 -2.2,0.9 -4,2.1 -5.3,3.8 -1.3,1.7 -1.9,3.7 -1.9,6.1 0,2.5 0.5,4.6 1.6,6.2 1.1,1.6 2.5,2.9 4.2,3.8 1.7,1 3.5,1.8 5.3,2.5 2.2,0.6 3.8,1.2 5,1.8 1.2,0.5 2.1,1.1 2.6,1.7 0.5,0.6 0.8,1.3 0.8,2.1 0,1 -0.3,1.7 -0.9,2.3 -0.6,0.6 -1.6,0.9 -2.9,0.9 -0.9,0 -2,-0.2 -3.2,-0.6 -1.3,-0.4 -2.7,-1 -4.3,-2 -1.6,-0.9 -3.4,-2.2 -5.4,-3.9 l -5.4,8.5 c 1.8,1.4 3.7,2.6 5.7,3.7 2.1,1.1 4.3,2 6.7,2.6 2.4,0.7 5.1,1 7.9,1 3.1,0 5.8,-0.5 8,-1.5 2.2,-1 3.9,-2.4 5,-4.3 1.2,-1.9 1.8,-4.2 1.8,-7 0,-2.1 -0.6,-4.1 -1.6,-5.6 z"
           class="st0" /></g></g></g></svg>