<?xml version="1.0" encoding="utf-8"?>
<!-- Generator: Adobe Illustrator 22.1.0, SVG Export Plug-In . SVG Version: 6.00 Build 0)  -->
<svg version="1.1" id="Layer_1" xmlns="http://www.w3.org/2000/svg" xmlns:xlink="http://www.w3.org/1999/xlink" x="0px" y="0px"
	 viewBox="0 0 564.3 376.6" style="enable-background:new 0 0 564.3 376.6;" xml:space="preserve">
<style type="text/css">
	.st0{fill-rule:evenodd;clip-rule:evenodd;fill:#FFFFFF;}
	.st1{fill-rule:evenodd;clip-rule:evenodd;fill:#FF39AA;}
	.st2{fill:#FF39AA;}
	.st3{fill:#FFFFFF;}
</style>
<g>
	<g>
		<g>
			<path class="st0" d="M217.2,0h-40.9c-7.6,0-13.7,6.1-13.7,13.7v245.7c0,7.6,6.1,13.7,13.7,13.7h40.9c7.6,0,13.7-6.1,13.7-13.7
				V13.7C230.9,6.1,224.7,0,217.2,0z M302.6,0h-40.9C254.1,0,248,6.1,248,13.7v245.7c0,7.6,6.1,13.7,13.7,13.7h40.9
				c7.6,0,13.7-6.1,13.7-13.7V13.7C316.3,6.1,310.2,0,302.6,0z M388,0h-40.9c-7.6,0-13.7,6.1-13.7,13.7v245.7
				c0,7.6,6.1,13.7,13.7,13.7H388c7.6,0,13.7-6.1,13.7-13.7V13.7C401.7,6.1,395.6,0,388,0z"/>
		</g>
	</g>
	<g>
		<g>
			<path class="st1" d="M77.1,256.1c0,9.4,7.6,17.1,17.1,17.1h34.2c9.4,0,17.1-7.6,17.1-17.1V102.4L77.1,200V256.1z M470,0h-34.2
				c-9.4,0-17.1,7.6-17.1,17.1v153.6l68.3-97.5V17.1C487.1,7.6,479.5,0,470,0z"/>
		</g>
	</g>
	<g>
		<g>
			<path class="st2" d="M55,317.6c-1.8-1.2-4.2-1.8-7.3-1.8c-2.6,0-5,0.6-7.1,1.7c-2.1,1.1-3.9,2.7-5.3,4.8
				c-0.5-1.4-1.3-2.6-2.2-3.6c-1-1-2.2-1.7-3.7-2.2c-1.5-0.5-3.3-0.7-5.3-0.7c-1.8,0-3.4,0.3-4.8,0.8c-1.5,0.5-2.7,1.3-3.8,2.3
				c-1.1,1-2,2.2-2.8,3.7v-5.8H0v39.3h12.6v-23.9c0-1.6,0.2-2.9,0.7-4c0.5-1.1,1.2-1.9,2.1-2.4c0.9-0.5,1.9-0.8,3.1-0.8
				c1.1,0,2.1,0.3,2.8,0.8c0.7,0.5,1.2,1.3,1.6,2.4c0.3,1.1,0.5,2.4,0.5,4v23.9h13v-23.9c0-1.5,0.2-2.8,0.7-3.9
				c0.5-1.1,1.2-1.9,2.1-2.4c0.9-0.5,1.9-0.8,3-0.8c1.2,0,2.2,0.3,2.9,0.8c0.7,0.5,1.2,1.3,1.5,2.4c0.3,1.1,0.5,2.4,0.5,4v23.9h13.1
				v-25.3c0-3.2-0.4-5.9-1.2-8.1C58.1,320.5,56.8,318.8,55,317.6z M101.4,318.5c-3.4-1.7-7.2-2.6-11.5-2.6c-4.3,0-8.1,0.9-11.5,2.6
				c-3.4,1.7-6.1,4.1-8.1,7.2s-3,6.7-3,10.9c0,4.1,1,7.7,3,10.8c2,3.1,4.6,5.5,8,7.2c3.4,1.7,7.2,2.6,11.5,2.6
				c4.3,0,8.2-0.9,11.5-2.6c3.4-1.7,6-4.1,8-7.2c2-3.1,3-6.7,3-10.8c0-4.2-1-7.8-3-10.9C107.4,322.6,104.8,320.2,101.4,318.5z
				 M97.7,341.7c-0.8,1.5-1.9,2.6-3.2,3.4c-1.4,0.8-2.9,1.2-4.6,1.2c-1.7,0-3.2-0.4-4.6-1.2c-1.4-0.8-2.5-2-3.3-3.5
				c-0.8-1.5-1.2-3.2-1.2-5.2c0-2.1,0.4-3.8,1.2-5.3c0.8-1.5,1.9-2.6,3.3-3.4c1.4-0.8,2.9-1.2,4.6-1.2c1.7,0,3.2,0.4,4.6,1.2
				c1.4,0.8,2.5,1.9,3.2,3.4c0.8,1.5,1.2,3.2,1.2,5.3C98.9,338.5,98.5,340.2,97.7,341.7z M135.4,338.6l-9-21.8h-13.9l22.8,43.9
				l22.8-43.9h-13.9L135.4,338.6z M163.1,356.1h12.6v-39.3h-12.6V356.1z M174.8,297.1c-1.5-1.3-3.2-2-5.3-2c-2.2,0-4,0.7-5.4,2
				c-1.4,1.3-2.1,3-2.1,5c0,2.1,0.7,3.7,2.1,5c1.4,1.3,3.2,1.9,5.4,1.9c2.1,0,3.9-0.6,5.3-1.9c1.5-1.3,2.2-2.9,2.2-5
				C177,300.1,176.3,298.4,174.8,297.1z M218.7,317.7c-2.1-1.2-4.7-1.8-8-1.8c-2.9,0-5.3,0.6-7.3,1.8c-2,1.2-3.6,2.9-4.7,5v-5.9
				h-13.1v39.3h13.1v-23.9c0-1.5,0.3-2.8,0.9-3.9c0.6-1.1,1.4-1.9,2.4-2.5c1-0.5,2.2-0.8,3.6-0.8c1.4,0,2.6,0.3,3.4,0.8
				c0.8,0.5,1.4,1.4,1.8,2.4c0.4,1.1,0.6,2.4,0.6,3.9v23.9h13.5v-25.3c0-3.1-0.5-5.8-1.5-8C222.3,320.6,220.8,318.9,218.7,317.7z
				 M264.4,316.8v6c-0.4-0.6-0.8-1.1-1.3-1.6c-1.5-1.7-3.3-3-5.4-3.9c-2.1-0.9-4.3-1.3-6.8-1.3c-3.2,0-6.3,0.7-9.1,2.2
				c-2.8,1.5-5.1,3.7-6.9,6.7c-1.8,3-2.7,6.7-2.7,11.1c0,4.4,0.9,8.1,2.7,11.1c1.8,3,4.1,5.2,6.9,6.7c2.8,1.5,5.9,2.2,9.1,2.2
				c2.5,0,4.7-0.4,6.8-1.3c2.1-0.9,3.9-2.2,5.4-3.9c0.5-0.5,0.9-1.1,1.3-1.6v6.2c0,2.3-0.4,4.3-1.3,6c-0.9,1.7-2.1,2.9-3.5,3.7
				c-1.5,0.8-3.1,1.2-5,1.2c-1.7,0-3.1-0.3-4.4-0.8c-1.3-0.5-2.3-1.3-3-2.4c-0.7-1.1-1.2-2.4-1.5-4h-12.6c0.3,3.5,1.3,6.5,2.9,9.1
				c1.6,2.6,4,4.7,7.1,6.2c3.1,1.5,7.2,2.3,12.1,2.3c3.9,0,7.5-0.7,10.8-2.1c3.3-1.4,5.9-3.7,7.8-6.8c1.9-3.1,2.9-7.2,2.9-12.3
				v-38.5H264.4z M263.5,340.1c-0.5,1.2-1.3,2.2-2.1,3c-0.9,0.8-1.9,1.4-2.9,1.8c-1.1,0.4-2.2,0.6-3.3,0.6c-1.7,0-3.3-0.4-4.7-1.1
				c-1.5-0.7-2.6-1.8-3.4-3.2c-0.8-1.4-1.2-3.2-1.2-5.2c0-2.1,0.4-3.8,1.3-5.2c0.9-1.4,2-2.5,3.4-3.2c1.4-0.7,3-1.1,4.7-1.1
				c1.1,0,2.2,0.2,3.2,0.6c1.1,0.4,2.1,1,3,1.8c0.9,0.8,1.6,1.8,2.1,3c0.5,1.2,0.8,2.6,0.8,4.2C264.4,337.6,264.1,338.9,263.5,340.1
				z"/>
		</g>
	</g>
	<g>
		<g>
			<path class="st3" d="M322.4,317.1c-2.9-1.6-5.9-2.3-9.1-2.3c-2.6,0-4.9,0.5-6.9,1.5c-2.1,1-3.8,2.4-5.2,4.3
				c-0.5,0.6-0.9,1.3-1.3,2v-6.4H287v58.1h12.9v-25.2c0.4,0.7,0.8,1.3,1.3,2c1.4,1.9,3.2,3.3,5.2,4.2s4.4,1.5,6.9,1.5
				c3.2,0,6.2-0.8,9.1-2.3c2.8-1.6,5.2-3.9,7-7c1.8-3.1,2.7-6.9,2.7-11.5c0-4.7-0.9-8.6-2.7-11.7C327.5,321,325.2,318.7,322.4,317.1
				z M317.1,341c-0.9,1.4-2,2.5-3.4,3.2c-1.4,0.7-3,1.1-4.7,1.1c-1,0-2.1-0.2-3.2-0.6c-1.1-0.4-2.1-1-3-1.8c-0.9-0.8-1.6-1.8-2.1-3
				c-0.5-1.2-0.8-2.6-0.8-4.1c0-1.7,0.3-3.1,0.8-4.3c0.5-1.2,1.3-2.2,2.1-3c0.9-0.8,1.9-1.4,3-1.8c1.1-0.4,2.2-0.6,3.2-0.6
				c1.7,0,3.3,0.4,4.7,1.1c1.4,0.7,2.5,1.8,3.4,3.2c0.9,1.4,1.3,3.2,1.3,5.2C318.3,337.8,317.9,339.6,317.1,341z M367.1,316.5
				c-2.7-1-5.8-1.5-9.4-1.5c-3.7,0-7.1,0.5-10.2,1.4c-3.1,0.9-5.8,2-8.1,3l4.4,8.7c0.5-0.3,1.4-0.8,2.7-1.3c1.3-0.5,2.8-1,4.5-1.4
				c1.7-0.4,3.4-0.6,5.2-0.6c1.2,0,2.3,0.1,3.2,0.3c0.9,0.2,1.7,0.6,2.4,1.1c0.7,0.5,1.1,1.1,1.4,1.9c0.3,0.8,0.4,1.6,0.4,2.5v3.4
				c-0.1,0-0.1-0.1-0.2-0.1c-1.4-0.7-3.1-1.2-5-1.7c-1.9-0.4-4-0.6-6.3-0.6c-3.4,0-6.3,0.5-8.5,1.4c-2.3,0.9-4,2.3-5.1,4.2
				c-1.2,1.9-1.8,4-1.8,6.5c0,2.7,0.6,5,1.9,6.8c1.3,1.9,3,3.3,5.1,4.2c2.1,0.9,4.4,1.4,6.9,1.4c2.5,0,4.9-0.4,7.1-1.3
				c2.2-0.9,4-2.2,5.3-3.9c0.2-0.3,0.4-0.6,0.6-1v5.4h12.4v-27.8c0-2.7-0.8-5-2.4-6.8C371.9,319,369.8,317.5,367.1,316.5z
				 M362.3,344.2c-0.8,1.3-1.8,2.2-3.1,2.8c-1.3,0.6-2.6,0.9-4.1,0.9c-1,0-2-0.2-2.8-0.6c-0.9-0.4-1.5-0.9-2-1.6
				c-0.5-0.7-0.7-1.5-0.7-2.6c0-1,0.2-1.9,0.6-2.5c0.4-0.6,1.1-1.1,2.1-1.5c0.9-0.3,2.2-0.5,3.6-0.5c2,0,3.9,0.3,5.7,0.8
				c0.7,0.2,1.3,0.4,1.9,0.7C363.4,341.8,363,343.1,362.3,344.2z M418.3,317c-2.1-1.2-4.7-1.8-8-1.8c-2.9,0-5.3,0.6-7.3,1.8
				c-2,1.2-3.6,2.9-4.7,5v-5.9h-13.1v39.3h13.1v-23.9c0-1.5,0.3-2.8,0.9-3.9c0.6-1.1,1.4-1.9,2.4-2.5c1-0.5,2.2-0.8,3.6-0.8
				c1.4,0,2.6,0.3,3.4,0.8c0.8,0.5,1.4,1.4,1.8,2.4c0.4,1.1,0.6,2.4,0.6,3.9v23.9h13.5v-25.3c0-3.1-0.5-5.8-1.5-8
				C421.9,319.9,420.4,318.2,418.3,317z M464,322.3c-0.4-0.6-0.8-1.1-1.2-1.6c-1.5-1.8-3.3-3.1-5.4-4.1c-2.1-0.9-4.4-1.4-6.9-1.4
				c-3.2,0-6.3,0.8-9.1,2.3c-2.8,1.6-5.1,3.9-6.9,6.9c-1.8,3-2.7,6.8-2.7,11.2c0,4.4,0.9,8.1,2.7,11.2c1.8,3.1,4.1,5.4,6.9,7
				c2.8,1.6,5.9,2.3,9.1,2.3c2.5,0,4.8-0.5,6.8-1.4s3.9-2.3,5.4-4.1c0.4-0.5,0.9-1,1.2-1.6v6.2h12.9v-66.6H464V322.3z M463.2,340
				c-0.5,1.2-1.3,2.3-2.1,3.2c-0.9,0.9-1.9,1.6-3,2c-1.1,0.5-2.1,0.7-3.2,0.7c-1.8,0-3.4-0.4-4.8-1.2c-1.4-0.8-2.6-2-3.4-3.5
				c-0.9-1.5-1.3-3.3-1.3-5.3c0-2.1,0.4-3.8,1.3-5.3c0.9-1.5,2-2.7,3.4-3.5c1.4-0.8,3-1.2,4.7-1.2c1.1,0,2.2,0.2,3.2,0.7
				c1.1,0.5,2.1,1.1,3,2c0.9,0.9,1.6,1.9,2.1,3.2c0.5,1.3,0.8,2.7,0.8,4.3C464,337.4,463.7,338.8,463.2,340z M514.4,316.5
				c-2.7-1-5.8-1.5-9.4-1.5c-3.7,0-7.1,0.5-10.2,1.4c-3.1,0.9-5.8,2-8.1,3l4.4,8.7c0.5-0.3,1.4-0.8,2.7-1.3c1.3-0.5,2.8-1,4.5-1.4
				c1.7-0.4,3.4-0.6,5.2-0.6c1.2,0,2.3,0.1,3.2,0.3c0.9,0.2,1.7,0.6,2.4,1.1c0.7,0.5,1.1,1.1,1.4,1.9c0.3,0.8,0.4,1.6,0.4,2.5v3.4
				c-0.1,0-0.1-0.1-0.2-0.1c-1.4-0.7-3.1-1.2-5-1.7c-1.9-0.4-4-0.6-6.3-0.6c-3.4,0-6.3,0.5-8.5,1.4c-2.3,0.9-4,2.3-5.1,4.2
				c-1.2,1.9-1.8,4-1.8,6.5c0,2.7,0.6,5,1.9,6.8c1.3,1.9,3,3.3,5.1,4.2c2.1,0.9,4.4,1.4,6.9,1.4c2.5,0,4.9-0.4,7.1-1.3
				c2.2-0.9,4-2.2,5.3-3.9c0.2-0.3,0.4-0.6,0.6-1v5.4h12.4v-27.8c0-2.7-0.8-5-2.4-6.8C519.3,319,517.1,317.5,514.4,316.5z
				 M509.6,344.2c-0.8,1.3-1.8,2.2-3.1,2.8c-1.3,0.6-2.6,0.9-4.1,0.9c-1,0-2-0.2-2.8-0.6c-0.9-0.4-1.5-0.9-2-1.6
				c-0.5-0.7-0.7-1.5-0.7-2.6c0-1,0.2-1.9,0.6-2.5c0.4-0.6,1.1-1.1,2.1-1.5c0.9-0.3,2.2-0.5,3.6-0.5c2,0,3.9,0.3,5.7,0.8
				c0.7,0.2,1.3,0.4,1.9,0.7C510.7,341.8,510.3,343.1,509.6,344.2z M562.7,338.4c-1.1-1.5-2.4-2.7-4.1-3.7c-1.7-1-3.6-1.8-5.7-2.6
				c-1.9-0.7-3.6-1.4-4.9-1.8c-1.3-0.5-2.4-1-3.1-1.6c-0.7-0.6-1.1-1.3-1.1-2.1c0-0.7,0.3-1.3,0.9-1.8c0.6-0.5,1.5-0.7,2.6-0.7
				c1.8,0,3.7,0.5,5.9,1.5c2.2,1,4,2.3,5.6,3.8l4.6-8.5c-1.5-1.1-3.1-2.1-4.8-3c-1.7-0.9-3.6-1.5-5.6-2.1s-4.1-0.8-6.5-0.8
				c-2.8,0-5.3,0.4-7.5,1.3c-2.2,0.9-4,2.1-5.3,3.8c-1.3,1.7-1.9,3.7-1.9,6.1c0,2.5,0.5,4.6,1.6,6.2c1.1,1.6,2.5,2.9,4.2,3.8
				c1.7,1,3.5,1.8,5.3,2.5c2.2,0.6,3.8,1.2,5,1.8c1.2,0.5,2.1,1.1,2.6,1.7c0.5,0.6,0.8,1.3,0.8,2.1c0,1-0.3,1.7-0.9,2.3
				c-0.6,0.6-1.6,0.9-2.9,0.9c-0.9,0-2-0.2-3.2-0.6c-1.3-0.4-2.7-1-4.3-2c-1.6-0.9-3.4-2.2-5.4-3.9l-5.4,8.5
				c1.8,1.4,3.7,2.6,5.7,3.7c2.1,1.1,4.3,2,6.7,2.6c2.4,0.7,5.1,1,7.9,1c3.1,0,5.8-0.5,8-1.5c2.2-1,3.9-2.4,5-4.3
				c1.2-1.9,1.8-4.2,1.8-7C564.3,341.9,563.7,339.9,562.7,338.4z"/>
		</g>
	</g>
</g>
</svg>
