<?xml version="1.0" encoding="UTF-8" standalone="no"?>
<!-- Generator: Adobe Illustrator 22.1.0, SVG Export Plug-In . SVG Version: 6.00 Build 0)  -->

<svg
   xmlns:dc="http://purl.org/dc/elements/1.1/"
   xmlns:cc="http://creativecommons.org/ns#"
   xmlns:rdf="http://www.w3.org/1999/02/22-rdf-syntax-ns#"
   xmlns:svg="http://www.w3.org/2000/svg"
   xmlns="http://www.w3.org/2000/svg"
   xmlns:sodipodi="http://sodipodi.sourceforge.net/DTD/sodipodi-0.dtd"
   xmlns:inkscape="http://www.inkscape.org/namespaces/inkscape"
   version="1.1"
   id="Layer_1"
   x="0px"
   y="0px"
   viewBox="0 0 564.3 376.6"
   xml:space="preserve"
   inkscape:version="0.91 r13725"
   sodipodi:docname="logo.svg"
   style="enable-background:new 0 0 564.3 376.6;"><metadata
     id="metadata39"><rdf:RDF><cc:Work
         rdf:about=""><dc:format>image/svg+xml</dc:format><dc:type
           rdf:resource="http://purl.org/dc/dcmitype/StillImage" /><dc:title></dc:title></cc:Work></rdf:RDF></metadata><defs
     id="defs37" /><sodipodi:namedview
     pagecolor="#ffffff"
     bordercolor="#666666"
     borderopacity="1"
     objecttolerance="10"
     gridtolerance="10"
     guidetolerance="10"
     inkscape:pageopacity="0"
     inkscape:pageshadow="2"
     inkscape:window-width="1670"
     inkscape:window-height="1079"
     id="namedview35"
     showgrid="false"
     inkscape:zoom="0.40223513"
     inkscape:cx="1035.0035"
     inkscape:cy="435.36432"
     inkscape:window-x="631"
     inkscape:window-y="441"
     inkscape:window-maximized="0"
     inkscape:current-layer="Layer_1" /><style
     type="text/css"
     id="style3">
	.st0{fill:#25224F;}
	.st1{fill:#E31883;}
</style><g
     id="g5"><g
       id="g7"><g
         id="g9"><g
           id="g11"><path
             class="st0"
             d="M217.2,0h-40.9c-7.6,0-13.7,6.1-13.7,13.7v245.7c0,7.6,6.1,13.7,13.7,13.7h40.9c7.6,0,13.7-6.1,13.7-13.7      V13.7C230.9,6.1,224.7,0,217.2,0z M302.6,0h-40.9C254.1,0,248,6.1,248,13.7v245.7c0,7.6,6.1,13.7,13.7,13.7h40.9      c7.6,0,13.7-6.1,13.7-13.7V13.7C316.3,6.1,310.2,0,302.6,0z M388,0h-40.9c-7.6,0-13.7,6.1-13.7,13.7v245.7      c0,7.6,6.1,13.7,13.7,13.7H388c7.6,0,13.7-6.1,13.7-13.7V13.7C401.7,6.1,395.6,0,388,0z"
             id="path13" /></g></g><g
         id="g15"><g
           id="g17"><path
             class="st1"
             d="M77.1,256.1c0,9.4,7.6,17.1,17.1,17.1h34.2c9.4,0,17.1-7.6,17.1-17.1V102.4L77.1,200V256.1z M470,0h-34.2      c-9.4,0-17.1,7.6-17.1,17.1v153.6L487,73.2V17.1C487.1,7.6,479.5,0,470,0z"
             id="path19" /></g></g></g><g
       id="g21"><g
         id="g23"><g
           id="g25"><path
             class="st1"
             d="M55,317.6c-1.8-1.2-4.2-1.8-7.3-1.8c-2.6,0-5,0.6-7.1,1.7s-3.9,2.7-5.3,4.8c-0.5-1.4-1.3-2.6-2.2-3.6      c-1-1-2.2-1.7-3.7-2.2s-3.3-0.7-5.3-0.7c-1.8,0-3.4,0.3-4.8,0.8c-1.5,0.5-2.7,1.3-3.8,2.3s-2,2.2-2.8,3.7v-5.8H0v39.3h12.6      v-23.9c0-1.6,0.2-2.9,0.7-4s1.2-1.9,2.1-2.4s1.9-0.8,3.1-0.8c1.1,0,2.1,0.3,2.8,0.8c0.7,0.5,1.2,1.3,1.6,2.4      c0.3,1.1,0.5,2.4,0.5,4v23.9h13v-23.9c0-1.5,0.2-2.8,0.7-3.9s1.2-1.9,2.1-2.4c0.9-0.5,1.9-0.8,3-0.8c1.2,0,2.2,0.3,2.9,0.8      s1.2,1.3,1.5,2.4s0.5,2.4,0.5,4v23.9h13.1v-25.3c0-3.2-0.4-5.9-1.2-8.1C58.1,320.5,56.8,318.8,55,317.6z M101.4,318.5      c-3.4-1.7-7.2-2.6-11.5-2.6s-8.1,0.9-11.5,2.6s-6.1,4.1-8.1,7.2s-3,6.7-3,10.9c0,4.1,1,7.7,3,10.8c2,3.1,4.6,5.5,8,7.2      s7.2,2.6,11.5,2.6s8.2-0.9,11.5-2.6c3.4-1.7,6-4.1,8-7.2s3-6.7,3-10.8c0-4.2-1-7.8-3-10.9C107.4,322.6,104.8,320.2,101.4,318.5z       M97.7,341.7c-0.8,1.5-1.9,2.6-3.2,3.4c-1.4,0.8-2.9,1.2-4.6,1.2s-3.2-0.4-4.6-1.2c-1.4-0.8-2.5-2-3.3-3.5s-1.2-3.2-1.2-5.2      c0-2.1,0.4-3.8,1.2-5.3c0.8-1.5,1.9-2.6,3.3-3.4s2.9-1.2,4.6-1.2s3.2,0.4,4.6,1.2c1.4,0.8,2.5,1.9,3.2,3.4      c0.8,1.5,1.2,3.2,1.2,5.3C98.9,338.5,98.5,340.2,97.7,341.7z M135.4,338.6l-9-21.8h-13.9l22.8,43.9l22.8-43.9h-13.9L135.4,338.6      z M163.1,356.1h12.6v-39.3h-12.6V356.1z M174.8,297.1c-1.5-1.3-3.2-2-5.3-2c-2.2,0-4,0.7-5.4,2s-2.1,3-2.1,5      c0,2.1,0.7,3.7,2.1,5c1.4,1.3,3.2,1.9,5.4,1.9c2.1,0,3.9-0.6,5.3-1.9c1.5-1.3,2.2-2.9,2.2-5C177,300.1,176.3,298.4,174.8,297.1z       M218.7,317.7c-2.1-1.2-4.7-1.8-8-1.8c-2.9,0-5.3,0.6-7.3,1.8c-2,1.2-3.6,2.9-4.7,5v-5.9h-13.1v39.3h13.1v-23.9      c0-1.5,0.3-2.8,0.9-3.9c0.6-1.1,1.4-1.9,2.4-2.5c1-0.5,2.2-0.8,3.6-0.8c1.4,0,2.6,0.3,3.4,0.8c0.8,0.5,1.4,1.4,1.8,2.4      c0.4,1.1,0.6,2.4,0.6,3.9V356h13.5v-25.3c0-3.1-0.5-5.8-1.5-8C222.3,320.6,220.8,318.9,218.7,317.7z M264.4,316.8v6      c-0.4-0.6-0.8-1.1-1.3-1.6c-1.5-1.7-3.3-3-5.4-3.9s-4.3-1.3-6.8-1.3c-3.2,0-6.3,0.7-9.1,2.2s-5.1,3.7-6.9,6.7      c-1.8,3-2.7,6.7-2.7,11.1s0.9,8.1,2.7,11.1s4.1,5.2,6.9,6.7c2.8,1.5,5.9,2.2,9.1,2.2c2.5,0,4.7-0.4,6.8-1.3s3.9-2.2,5.4-3.9      c0.5-0.5,0.9-1.1,1.3-1.6v6.2c0,2.3-0.4,4.3-1.3,6s-2.1,2.9-3.5,3.7c-1.5,0.8-3.1,1.2-5,1.2c-1.7,0-3.1-0.3-4.4-0.8      c-1.3-0.5-2.3-1.3-3-2.4s-1.2-2.4-1.5-4h-12.6c0.3,3.5,1.3,6.5,2.9,9.1c1.6,2.6,4,4.7,7.1,6.2s7.2,2.3,12.1,2.3      c3.9,0,7.5-0.7,10.8-2.1s5.9-3.7,7.8-6.8c1.9-3.1,2.9-7.2,2.9-12.3V317h-12.3V316.8z M263.5,340.1c-0.5,1.2-1.3,2.2-2.1,3      c-0.9,0.8-1.9,1.4-2.9,1.8c-1.1,0.4-2.2,0.6-3.3,0.6c-1.7,0-3.3-0.4-4.7-1.1c-1.5-0.7-2.6-1.8-3.4-3.2c-0.8-1.4-1.2-3.2-1.2-5.2      c0-2.1,0.4-3.8,1.3-5.2c0.9-1.4,2-2.5,3.4-3.2s3-1.1,4.7-1.1c1.1,0,2.2,0.2,3.2,0.6c1.1,0.4,2.1,1,3,1.8s1.6,1.8,2.1,3      s0.8,2.6,0.8,4.2C264.4,337.6,264.1,338.9,263.5,340.1z"
             id="path27" /></g></g><g
         id="g29"><g
           id="g31"><path
             class="st0"
             d="M322.4,317.1c-2.9-1.6-5.9-2.3-9.1-2.3c-2.6,0-4.9,0.5-6.9,1.5c-2.1,1-3.8,2.4-5.2,4.3      c-0.5,0.6-0.9,1.3-1.3,2v-6.4H287v58.1h12.9v-25.2c0.4,0.7,0.8,1.3,1.3,2c1.4,1.9,3.2,3.3,5.2,4.2s4.4,1.5,6.9,1.5      c3.2,0,6.2-0.8,9.1-2.3c2.8-1.6,5.2-3.9,7-7s2.7-6.9,2.7-11.5c0-4.7-0.9-8.6-2.7-11.7C327.5,321,325.2,318.7,322.4,317.1z       M317.1,341c-0.9,1.4-2,2.5-3.4,3.2s-3,1.1-4.7,1.1c-1,0-2.1-0.2-3.2-0.6s-2.1-1-3-1.8s-1.6-1.8-2.1-3s-0.8-2.6-0.8-4.1      c0-1.7,0.3-3.1,0.8-4.3c0.5-1.2,1.3-2.2,2.1-3c0.9-0.8,1.9-1.4,3-1.8s2.2-0.6,3.2-0.6c1.7,0,3.3,0.4,4.7,1.1      c1.4,0.7,2.5,1.8,3.4,3.2c0.9,1.4,1.3,3.2,1.3,5.2C318.3,337.8,317.9,339.6,317.1,341z M367.1,316.5c-2.7-1-5.8-1.5-9.4-1.5      c-3.7,0-7.1,0.5-10.2,1.4s-5.8,2-8.1,3l4.4,8.7c0.5-0.3,1.4-0.8,2.7-1.3c1.3-0.5,2.8-1,4.5-1.4s3.4-0.6,5.2-0.6      c1.2,0,2.3,0.1,3.2,0.3c0.9,0.2,1.7,0.6,2.4,1.1c0.7,0.5,1.1,1.1,1.4,1.9s0.4,1.6,0.4,2.5v3.4c-0.1,0-0.1-0.1-0.2-0.1      c-1.4-0.7-3.1-1.2-5-1.7c-1.9-0.4-4-0.6-6.3-0.6c-3.4,0-6.3,0.5-8.5,1.4c-2.3,0.9-4,2.3-5.1,4.2c-1.2,1.9-1.8,4-1.8,6.5      c0,2.7,0.6,5,1.9,6.8c1.3,1.9,3,3.3,5.1,4.2c2.1,0.9,4.4,1.4,6.9,1.4s4.9-0.4,7.1-1.3s4-2.2,5.3-3.9c0.2-0.3,0.4-0.6,0.6-1v5.4      H376v-27.8c0-2.7-0.8-5-2.4-6.8C371.9,319,369.8,317.5,367.1,316.5z M362.3,344.2c-0.8,1.3-1.8,2.2-3.1,2.8      c-1.3,0.6-2.6,0.9-4.1,0.9c-1,0-2-0.2-2.8-0.6c-0.9-0.4-1.5-0.9-2-1.6s-0.7-1.5-0.7-2.6c0-1,0.2-1.9,0.6-2.5s1.1-1.1,2.1-1.5      c0.9-0.3,2.2-0.5,3.6-0.5c2,0,3.9,0.3,5.7,0.8c0.7,0.2,1.3,0.4,1.9,0.7C363.4,341.8,363,343.1,362.3,344.2z M418.3,317      c-2.1-1.2-4.7-1.8-8-1.8c-2.9,0-5.3,0.6-7.3,1.8c-2,1.2-3.6,2.9-4.7,5v-5.9h-13.1v39.3h13.1v-23.9c0-1.5,0.3-2.8,0.9-3.9      s1.4-1.9,2.4-2.5c1-0.5,2.2-0.8,3.6-0.8s2.6,0.3,3.4,0.8s1.4,1.4,1.8,2.4c0.4,1.1,0.6,2.4,0.6,3.9v23.9h13.5V330      c0-3.1-0.5-5.8-1.5-8C421.9,319.9,420.4,318.2,418.3,317z M464,322.3c-0.4-0.6-0.8-1.1-1.2-1.6c-1.5-1.8-3.3-3.1-5.4-4.1      c-2.1-0.9-4.4-1.4-6.9-1.4c-3.2,0-6.3,0.8-9.1,2.3c-2.8,1.6-5.1,3.9-6.9,6.9s-2.7,6.8-2.7,11.2c0,4.4,0.9,8.1,2.7,11.2      c1.8,3.1,4.1,5.4,6.9,7s5.9,2.3,9.1,2.3c2.5,0,4.8-0.5,6.8-1.4s3.9-2.3,5.4-4.1c0.4-0.5,0.9-1,1.2-1.6v6.2h12.9v-66.6H464V322.3      z M463.2,340c-0.5,1.2-1.3,2.3-2.1,3.2c-0.9,0.9-1.9,1.6-3,2c-1.1,0.5-2.1,0.7-3.2,0.7c-1.8,0-3.4-0.4-4.8-1.2      c-1.4-0.8-2.6-2-3.4-3.5c-0.9-1.5-1.3-3.3-1.3-5.3c0-2.1,0.4-3.8,1.3-5.3s2-2.7,3.4-3.5s3-1.2,4.7-1.2c1.1,0,2.2,0.2,3.2,0.7      c1.1,0.5,2.1,1.1,3,2s1.6,1.9,2.1,3.2c0.5,1.3,0.8,2.7,0.8,4.3C464,337.4,463.7,338.8,463.2,340z M514.4,316.5      c-2.7-1-5.8-1.5-9.4-1.5c-3.7,0-7.1,0.5-10.2,1.4s-5.8,2-8.1,3l4.4,8.7c0.5-0.3,1.4-0.8,2.7-1.3c1.3-0.5,2.8-1,4.5-1.4      s3.4-0.6,5.2-0.6c1.2,0,2.3,0.1,3.2,0.3c0.9,0.2,1.7,0.6,2.4,1.1c0.7,0.5,1.1,1.1,1.4,1.9s0.4,1.6,0.4,2.5v3.4      c-0.1,0-0.1-0.1-0.2-0.1c-1.4-0.7-3.1-1.2-5-1.7c-1.9-0.4-4-0.6-6.3-0.6c-3.4,0-6.3,0.5-8.5,1.4c-2.3,0.9-4,2.3-5.1,4.2      c-1.2,1.9-1.8,4-1.8,6.5c0,2.7,0.6,5,1.9,6.8c1.3,1.9,3,3.3,5.1,4.2c2.1,0.9,4.4,1.4,6.9,1.4s4.9-0.4,7.1-1.3s4-2.2,5.3-3.9      c0.2-0.3,0.4-0.6,0.6-1v5.4h12.4v-27.8c0-2.7-0.8-5-2.4-6.8C519.3,319,517.1,317.5,514.4,316.5z M509.6,344.2      c-0.8,1.3-1.8,2.2-3.1,2.8c-1.3,0.6-2.6,0.9-4.1,0.9c-1,0-2-0.2-2.8-0.6c-0.9-0.4-1.5-0.9-2-1.6s-0.7-1.5-0.7-2.6      c0-1,0.2-1.9,0.6-2.5s1.1-1.1,2.1-1.5c0.9-0.3,2.2-0.5,3.6-0.5c2,0,3.9,0.3,5.7,0.8c0.7,0.2,1.3,0.4,1.9,0.7      C510.7,341.8,510.3,343.1,509.6,344.2z M562.7,338.4c-1.1-1.5-2.4-2.7-4.1-3.7c-1.7-1-3.6-1.8-5.7-2.6c-1.9-0.7-3.6-1.4-4.9-1.8      c-1.3-0.5-2.4-1-3.1-1.6c-0.7-0.6-1.1-1.3-1.1-2.1c0-0.7,0.3-1.3,0.9-1.8c0.6-0.5,1.5-0.7,2.6-0.7c1.8,0,3.7,0.5,5.9,1.5      s4,2.3,5.6,3.8l4.6-8.5c-1.5-1.1-3.1-2.1-4.8-3s-3.6-1.5-5.6-2.1s-4.1-0.8-6.5-0.8c-2.8,0-5.3,0.4-7.5,1.3s-4,2.1-5.3,3.8      c-1.3,1.7-1.9,3.7-1.9,6.1c0,2.5,0.5,4.6,1.6,6.2s2.5,2.9,4.2,3.8c1.7,1,3.5,1.8,5.3,2.5c2.2,0.6,3.8,1.2,5,1.8      c1.2,0.5,2.1,1.1,2.6,1.7s0.8,1.3,0.8,2.1c0,1-0.3,1.7-0.9,2.3c-0.6,0.6-1.6,0.9-2.9,0.9c-0.9,0-2-0.2-3.2-0.6      c-1.3-0.4-2.7-1-4.3-2c-1.6-0.9-3.4-2.2-5.4-3.9l-5.4,8.5c1.8,1.4,3.7,2.6,5.7,3.7c2.1,1.1,4.3,2,6.7,2.6c2.4,0.7,5.1,1,7.9,1      c3.1,0,5.8-0.5,8-1.5s3.9-2.4,5-4.3c1.2-1.9,1.8-4.2,1.8-7C564.3,341.9,563.7,339.9,562.7,338.4z"
             id="path33" /></g></g></g></g></svg>